<svg class="icon" style="width: 1em;height: 1em;vertical-align: middle;fill: currentColor;overflow: hidden;" viewBox="0 0 1024 1024" version="1.1" xmlns="http://www.w3.org/2000/svg" p-id="811"><path d="M792.740267 0.073138c45.491608 0 85.790444 29.328191 99.832869 72.625669 5.631598 17.260481 4.680809 35.618027 4.680809 53.46361v249.545604c15.651453-3.730019 32.034283-3.730019 47.758874 0 37.812156 8.922791 70.285265 41.981001 76.501964 80.597671 3.656882 22.892079 2.047854 46.808085 2.047854 69.84644v357.2042c0 13.091636-0.365688 26.110135-4.241983 38.762945-13.164774 42.931791-52.293408 72.698807-97.273052 74.015285H105.685343a109.340761 109.340761 0 0 1-52.293408-12.872224A104.367402 104.367402 0 0 1 0.001463 892.791086V478.027569c-0.146275-25.451896 8.776516-50.099279 25.232483-69.553889 24.062281-29.03564 62.971502-40.079423 99.247768-33.497035l1.828441 0.365688V106.342118c0-12.799086 1.462753-25.96386 6.143561-37.885293 11.555746-29.328191 32.76566-50.757517 62.166988-62.166989 15.066352-5.851011 30.937219-6.216699 46.808085-6.216698zM82.208162 920.510249c3.730019 4.388258 6.874938 7.679451 7.313764 7.313764a59.460896 59.460896 0 0 0-7.313764-7.313764z m838.011-478.978358l-4.388258 0.146275c-2.998643 0.658239-5.924148 1.462753-8.776516 2.413542l-4.095708 2.194129-51.781444 28.231126-97.785015 53.390472-109.194486 59.534033-86.302407 47.100636-23.330905 12.652811c-1.609028 0.950789-3.291193 1.901578-4.900222 2.706092a37.519606 37.519606 0 0 1-35.764302 0c-15.285765-7.752589-30.205842-16.455967-45.199058-24.647382l-95.298335-51.92772-109.70645-59.826584-89.666738-49.002214c-12.140847-6.582387-24.208557-14.115563-36.788229-20.112849a73.210771 73.210771 0 0 0-9.58103-2.706092 74.746661 74.746661 0 0 0-8.776516 0c-3.071781 0.658239-6.143561 1.462753-9.069067 2.486679a68.017999 68.017999 0 0 0-6.362974 3.656882c-1.023927 1.097064-3.218056 2.48668-4.02257 3.291194a63.264053 63.264053 0 0 0-3.876294 4.022569c-1.462753 2.340404-2.925505 4.827084-4.168845 7.313764a72.698807 72.698807 0 0 0-2.413542 8.776516 81.621598 81.621598 0 0 0-0.146275 5.046496c-0.146275 16.090279 0 32.180559 0 48.343976v329.631312c0 14.042426-1.097064 28.74309 0 42.858653 0.731376 3.144918 1.53589 6.289836 2.559817 9.288479a69.407614 69.407614 0 0 0 4.241982 7.313763c1.097064 1.097064 2.120991 2.413542 3.218056 3.583744l2.77923 2.632955a68.164274 68.164274 0 0 0 8.118278 4.753946c2.925505 1.023927 5.851011 1.828441 8.849653 2.48668 1.828441 0.146275 3.656882 0.146275 5.412185 0.146275h816.215985l4.60767-0.146275c2.998643-0.658239 5.997286-1.462753 8.922792-2.48668a68.749375 68.749375 0 0 0 7.240625-4.168845l3.656882-3.291193 2.632955-2.706093 0.877651-1.243339a68.968788 68.968788 0 0 0 3.876295-6.874938c1.023927-2.925505 1.828441-5.851011 2.486679-8.922791l0.146276-4.827084V514.742661c0-14.188701 1.023927-28.962503-0.146276-43.224341a73.869009 73.869009 0 0 0-2.340404-8.849653 99.613456 99.613456 0 0 0-4.388258-7.679452 74.45411 74.45411 0 0 0-3.730019-3.876294c-1.462753-1.462753-3.144918-2.706092-4.607671-4.095708l0.804514 0.731376 0.950789 0.95079-1.462752-1.023927a68.968788 68.968788 0 0 0-6.070424-3.437469 73.795872 73.795872 0 0 0-9.069066-2.559817 72.552532 72.552532 0 0 0-8.776516 0z m34.886651 470.713806a64.361117 64.361117 0 0 0-7.313764 7.313763c4.461396-3.656882 7.825727-6.8018 7.313764-7.313763zM760.267158 68.822513L726.989535 68.89565H242.818405c-5.924148 0-11.994572-0.146275-17.991858 0.219413-2.925505 0.658239-5.851011 1.462753-8.776516 2.413542a69.407614 69.407614 0 0 0-7.240626 4.168845c-1.170202 1.170202-2.48668 2.194129-3.656882 3.291194l-2.632954 2.77923-0.877652 1.243339a70.431541 70.431541 0 0 0-3.876294 6.874938 74.819799 74.819799 0 0 0-2.559818 9.215342c-0.950789 12.433398-0.073138 25.159346-0.073137 37.519605V401.598743c0 2.194129-0.219413 4.388258-0.658239 6.582387l82.2067 44.760231 113.948432 62.166988 97.492465 53.17106 23.623455 12.872223 54.633812-29.767017 118.775516-64.799942 117.605314-64.141705 25.817584-14.115563a30.205842 30.205842 0 0 1-0.219412-4.095707V129.819299c0-10.239269 0.585101-20.69795-0.146276-30.937219a71.967431 71.967431 0 0 0-2.486679-8.995929 67.432898 67.432898 0 0 0-4.168845-7.313763l-3.291194-3.583744 2.413542 2.852367-3.803157-3.510606-2.925505-3.144918-3.071781-1.755303-3.510606-1.901579a74.234698 74.234698 0 0 0-8.849654-2.413542 73.576459 73.576459 0 0 0-5.119634-0.219413c-22.087565-0.146275-44.248268 0-66.408971 0z m193.083351 392.895364h0.292551l-2.998643-4.02257 0.731376 1.097065 2.047854 2.925505z m-617.793586-136.767373l24.354832 0.219412h353.254767a35.106064 35.106064 0 0 1 34.374688 34.374688c0.804514 18.650096-16.455967 34.447825-34.374688 34.447825h-0.731376c-16.309692 0.365688-32.619384 0-48.855939 0h-353.254767a35.106064 35.106064 0 0 1-34.374688-34.374687c-0.804514-18.650096 16.455967-34.447825 34.374688-34.447826h0.731376c16.309692-0.365688 32.619384 0 48.855939 0z m0-162.365546l24.354832 0.146275h353.254767a35.106064 35.106064 0 0 1 34.374688 34.374688c0.804514 18.650096-16.455967 34.447825-34.374688 34.447825h-0.731376c-16.309692 0.365688-32.619384 0-48.855939 0h-353.254767a35.106064 35.106064 0 0 1-34.374688-34.374687c-0.804514-18.650096 16.455967-34.447825 34.374688-34.447826h0.731376c16.309692-0.365688 32.619384 0 48.855939 0zM207.712341 82.572388a54.853225 54.853225 0 0 1-6.948075 7.09435c-0.365688-0.219413 1.462753-2.047854 4.168845-4.607671l2.77923-2.486679z m605.579601-8.04514l0.658239 0.658239 0.29255 0.29255 1.24334 0.877652 1.24334 1.170202 0.877651 0.804514-1.82844-1.974716a16.38283 16.38283 0 0 0-1.609028-1.462753l-0.877652-0.365688z" fill="#666666" p-id="812"></path></svg>