<svg class="icon" style="width: 1em;height: 1em;vertical-align: middle;fill: currentColor;overflow: hidden;" viewBox="0 0 1024 1024" version="1.1" xmlns="http://www.w3.org/2000/svg" p-id="972"><path d="M454.2 579.8c-1.6-6.6-7.4-11-13.8-11.2-1 0-1.8 0-2.8 0.2l-0.2-0.2-84.2 14.2c13 36 37.2 65.2 67.8 84.8l32.6-78.8-0.2-0.4c1.2-2.4 1.4-5.4 0.8-8.6z m-28-60.6c2.8-0.8 5.4-2.4 7.4-5 4.8-6 4-14.8-1.8-19.8v-0.4l-64-57.2c-19 31-28 68-23.8 106.2l82-23.6 0.2-0.2z m111.2-75.8c0.2 3 1.2 5.8 3.2 8.4 4.8 6 13.6 7.2 19.8 2.6l0.2 0.2 69.6-49.4c-26.2-25.8-60.6-42.6-97.6-47l4.8 85.2z m-49 101l23.6 11.4 23.6-11.4 5.8-25.4-16.4-20.4h-26.2l-16.2 20.4z m-24.8-89.8c2.4 1.8 5.2 2.8 8.4 2.8 7.8 0 14-6.2 14.4-13.8l0.4-0.2 4.8-85.4c-5.8 0.8-11.6 1.6-17.4 3-31.8 7.2-59.4 22.8-80.8 44l70.2 49.6z m192-17.6L592 494v0.2c-2.2 2-3.8 4.6-4.6 7.6-1.8 7.6 2.8 15 10.2 17v0.4l82.4 23.8c1.8-17.8 0.6-36.2-3.6-54.6-4-18.8-11.2-36-20.8-51.4z" fill="#008CDB" p-id="973"></path><path d="M902.4 594.4l-67.2-292.2c-3.6-15.4-13.8-28.2-28.2-35l-272.4-130c-7.8-3.8-16.6-5.4-25.2-5-7 0.4-13.8 2-20 5l-272.4 130.2c-14.2 6.8-24.6 19.8-28.2 35L121.6 594.6c-3.2 13.6-0.6 27.8 7 39.6l3 4.2L320 872.8c9.8 12.2 24.8 19.4 40.8 19.4h302.2c15.8 0 30.8-7.2 40.8-19.4l188.4-234.4c10-12.6 13.6-28.6 10.2-44z m-103.6-3.6c-2 8.8-11.4 14-21 12h-0.2c-0.2 0-0.2 0-0.4-0.2-1.4-0.2-3-0.6-4.2-1-5.6-1.4-9.6-3.8-14.6-5.6-10.8-3.8-19.8-7-28.4-8.4-4.4-0.4-6.6 1.8-9.2 3.4-1.2-0.2-4.8-0.8-7-1.2-15.6 49-48.8 91.6-94 118.2 0.8 1.8 2 5.8 2.8 6.6-1 2.8-2.6 5.4-1.2 9.6 3.2 8.2 8.2 16.2 14.4 25.8 3 4.4 6 7.8 8.8 13 0.6 1.2 1.6 3 2.2 4.4 4.2 9 1.2 19.2-7 23.2s-18.2-0.2-22.6-9.2c-0.6-1.2-1.4-3-2-4.2-2.4-5.2-3.2-9.8-4.8-15-3.8-10.8-6.8-19.8-11.2-27.4-2.4-3.6-5.6-4.2-8.4-5-0.6-0.8-2.4-4.4-3.4-6.2-9 3.4-18.4 6.2-28 8.4-42.2 9.6-84.6 5.8-122.4-8.8l-3.6 6.6c-2.8 0.8-5.4 1.4-7 3.4-6 7-8.4 18.4-12.6 29.2-1.6 5.2-2.4 9.6-4.8 15-0.6 1.2-1.4 2.8-2 4.2-4.4 9-14.4 13-22.4 9.2s-11.2-14.2-7-23.2c0.6-1.2 1.4-3.2 2-4.4 2.6-5.2 5.8-8.6 8.8-13 6.2-9.6 11.6-18.4 14.8-26.6 0.8-2.8-0.4-6.4-1.4-9.2l3-7.2c-43.4-25.8-77.6-66.6-94-117.4l-7.2 1.2c-2-1-5.8-3.6-9.4-3.4-8.8 1.2-17.6 4.4-28.4 8.4-5 2-9 4.2-14.6 5.6-1.2 0.4-2.8 0.6-4.2 1-0.2 0-0.2 0-0.4 0.2h-0.2c-9.6 2-19-3.2-21-12-2-8.6 4.2-17.6 13.8-19.8h0.4c1.4-0.4 3.2-0.8 4.4-1 5.6-1 10.2-0.8 15.6-1.2 11.4-1.2 20.8-2.2 29.2-4.8 2.6-1 5.2-4.8 7-7l6.8-2c-7.6-53 5.2-105 33.2-147l-5.2-4.6c-0.4-2-0.8-6.8-3.2-9.4-6.4-6-14.4-11-24.2-17-4.6-2.8-8.8-4.4-13.6-8-1-0.8-2.4-1.8-3.4-2.8l-0.2-0.2c-7.8-6.2-9.6-17-4-24 3.2-4 8-6 13-5.8 3.8 0.2 8 1.6 11.4 4.2 1.2 0.8 2.6 2 3.6 2.8 4.4 3.8 7 7.4 10.8 11.4 8 8.2 14.6 15 22 19.8 3.8 2.2 6.8 1.4 9.6 1 1 0.6 4 3 5.8 4.2 27.8-29.4 64.2-51.2 106.4-60.8 9.8-2.2 19.6-3.8 29.4-4.6l0.4-6.8c2.2-2.2 4.6-5.2 5.2-8.4 0.8-8.8-0.4-18.2-1.8-29.6-0.8-5.4-2-9.8-2.2-15.4V249.4c0-10 7.2-18.2 16.2-18.2s16.2 8.2 16.2 18.2v4.6c-0.2 5.8-1.4 10.2-2.2 15.4-1.4 11.4-2.6 20.8-1.8 29.6 0.6 4.4 3.2 6.2 5.4 8.2 0 1.2 0.2 5.2 0.4 7.2 51.8 4.6 100 28.4 135.2 65.4l6.2-4.4c2.2 0.2 6.8 0.8 9.8-1 7.2-5 14-11.8 22-19.8 3.6-4 6.4-7.6 10.8-11.4 1-0.8 2.6-2 3.6-2.8 7.8-6.2 18.6-5.6 24.4 1.4s3.8 17.8-4 24c-1.2 0.8-2.6 2.2-3.6 2.8-4.6 3.4-9 5.2-13.6 8-9.8 6-17.8 11-24.2 17-3 3.2-2.8 6.4-3 9.2-1 0.8-4 3.6-5.8 5.2 14 21 24.6 44.6 30.6 70.6 6 25.8 6.8 51.4 3.4 76l6.6 2c1.2 1.6 3.6 5.8 7 7 8.4 2.6 17.8 3.6 29.2 4.8 5.4 0.4 10 0.2 15.6 1.2 1.4 0.2 3.4 0.8 4.8 1.2 9.8 2.6 16 11.4 14 20z" fill="#008CDB" p-id="974"></path><path d="M524.6 610.8c-1.4-2.6-3.6-4.8-6.4-6.2-2.2-1-4.4-1.6-6.8-1.4-5 0.2-9.6 3-12.2 7.6l-41.4 74.8c28.6 9.8 60.2 12 92 4.8 5.6-1.2 11.2-2.8 16.6-4.6l-41.4-75h-0.4z m61.6-42.2c-1-0.2-2.2-0.4-3.4-0.2-1.8 0-3.8 0.6-5.6 1.4-7 3.4-10 11.6-7 18.6l-0.2 0.2 33 79.6c31.8-20.2 55.6-50.4 68-85.4l-84.8-14.2z" fill="#008CDB" p-id="975"></path></svg>