<svg class="icon" style="width: 1em;height: 1em;vertical-align: middle;fill: currentColor;overflow: hidden;" viewBox="0 0 1024 1024" version="1.1" xmlns="http://www.w3.org/2000/svg" p-id="699"><path d="M526.791111 316.074667a46.051556 46.051556 0 1 0 0-92.074667 46.051556 46.051556 0 0 0 0 92.074667z m-189.752889 33.166222H265.187556l-79.843556 174.933333H28.558222L0 584.988444h157.582222l-94.976 208.128h71.822222l202.609778-443.847111z m331.548445 0h71.822222l-202.581333 443.847111h-71.822223l95.004445-208.128 27.733333-60.757333 79.843556-174.961778zM263.992889 584.988444h177.436444a116.821333 116.821333 0 0 0 107.349334-70.712888l1.848889-4.295112c32.483556-75.633778-23.608889-159.630222-105.898667-158.663111l-28.529778 55.921778 25.827556 1.536a58.88 58.88 0 0 1 50.915555 81.351111 55.182222 55.182222 0 0 1-51.000889 34.076445h-149.390222L263.964444 584.988444z m580.209778 0H666.737778l28.529778-60.785777h149.390222a55.182222 55.182222 0 0 0 51.000889-34.048 58.88 58.88 0 0 0-50.915556-81.351111l-25.827555-1.536 28.529777-55.950223c82.289778-0.995556 138.382222 83.057778 105.898667 158.663111l-1.848889 4.266667a116.821333 116.821333 0 0 1-107.320889 70.741333z m135.623111-314.936888a46.051556 46.051556 0 1 1-92.074667 0 46.051556 46.051556 0 0 1 92.074667 0z" fill="#3531D1" p-id="700"></path></svg>